<svg xmlns="http://www.w3.org/2000/svg" width="213" height="45" fill="none"><g fill="#E60000" clip-path="url(#a)"><path d="M33.272 13.572 6.692 26.064V.828H0v43.344h6.692v-11.07l26.58-12.494v23.564h6.693V.828h-6.693v12.744ZM180.504 13.059c.221-3.699 6.164-6.478 12.459-6.478s12.469 2.887 12.469 6.692h6.958C212.39 5.229 203.617 0 192.963 0c-10.655 0-19.428 5.231-19.428 13.273v3.773l32.453 15.253c-.594 3.517-6.576 6.117-12.666 6.117-6.418 0-12.719-2.886-12.719-6.691h-6.958c0 8.044 9.025 13.273 19.679 13.273 10.655 0 19.68-5.231 19.68-13.273v-3.393l-32.495-15.273h-.005ZM124.722.828l-16.494 39.166L91.733.828h-7.27l18.253 43.344h11.021L131.99.828h-7.268ZM91.557 44.172 73.303.828h-11.02L44.029 44.17h7.27l1.483-3.52 25.062-11.778 6.442 15.3h7.27ZM67.794 5.006l7.577 17.991-18.894 8.881L67.793 5.006ZM172.424 44.172 154.171.828H143.15L124.896 44.17h7.271l1.482-3.52 25.062-11.778 6.442 15.3h7.271ZM148.661 5.006l7.577 17.991-18.894 8.881 11.317-26.872Z"/></g><defs><clipPath id="a"><path fill="#fff" d="M0 0h213v45H0z"/></clipPath></defs></svg>