<?xml version="1.0" encoding="UTF-8" standalone="no"?>
<!-- Created with Inkscape (http://www.inkscape.org/) -->
<svg
   xmlns:svg="http://www.w3.org/2000/svg"
   xmlns="http://www.w3.org/2000/svg"
   version="1.0"
   width="500"
   height="53.599998"
   id="svg2">
  <defs
     id="defs4">
    <clipPath
       id="clipPath2418">
      <path
         d="M 0,0 L 595.276,0 L 595.276,841.89 L 0,841.89 L 0,0 z"
         id="path2420" />
    </clipPath>
  </defs>
  <g
     transform="translate(-174.54875,-198.97152)"
     id="layer1">
    <g
       transform="matrix(1.9130937,0,0,1.9130937,80.905984,-175.23373)"
       id="g2825">
      <g
         id="g2797">
        <path
           d="M 182.35798,217.749 C 181.89423,217.514 181.71673,217.1265 181.31673,216.18025 C 180.81923,215.00525 175.22923,201.18275 175.22923,201.18275 L 174.67923,201.184 C 174.67923,201.184 169.92548,213.0165 168.40923,216.384 C 167.87423,217.5715 167.66548,217.91775 166.29923,217.9515 L 166.29923,218.02525 L 171.09298,218.02525 L 171.09298,217.9515 C 169.71048,217.89525 168.58298,217.79275 169.26673,216.004 C 169.70173,214.86525 170.55923,212.67775 170.78048,212.1115 L 178.03048,212.1115 C 178.25798,212.7065 179.17048,215.08525 179.52548,216.00025 C 180.16423,217.649 179.71173,217.90275 177.71048,217.9515 L 177.71048,218.02525 L 183.35298,218.02525 L 183.35298,217.9515 C 183.01673,217.94525 182.66173,217.904 182.35798,217.749 M 177.88673,211.7465 L 170.92548,211.7465 L 174.42423,203.02525 L 177.88673,211.7465 z"
           id="path2422"
           style="fill:#53301a;fill-opacity:1;fill-rule:nonzero;stroke:none" />
        <path
           d="M 304.08298,217.749 C 303.61923,217.514 303.44173,217.1265 303.04048,216.18025 C 302.54423,215.00525 296.95423,201.18275 296.95423,201.18275 L 296.40298,201.184 C 296.40298,201.184 291.65048,213.0165 290.13298,216.384 C 289.59923,217.5715 289.39048,217.91775 288.02423,217.9515 L 288.02423,218.02525 L 292.81673,218.02525 L 292.81673,217.9515 C 291.43548,217.89525 290.30673,217.79275 290.99048,216.004 C 291.42673,214.86525 292.28298,212.67775 292.50548,212.1115 L 299.75423,212.1115 C 299.98298,212.7065 300.89423,215.08525 301.24923,216.00025 C 301.88923,217.649 301.43673,217.90275 299.43548,217.9515 L 299.43548,218.02525 L 305.07798,218.02525 L 305.07798,217.9515 C 304.74048,217.94525 304.38673,217.904 304.08298,217.749 M 299.61173,211.7465 L 292.65048,211.7465 L 296.14923,203.02525 L 299.61173,211.7465 z"
           id="path2424"
           style="fill:#53301a;fill-opacity:1;fill-rule:nonzero;stroke:none" />
        <path
           d="M 162.81673,211.87775 L 161.90673,211.87775 L 161.90673,217.16275 C 159.86048,217.9015 158.37048,218.3815 155.61923,218.3815 C 150.36548,218.3815 146.70798,215.079 146.70798,209.73525 C 146.70798,206.174 148.51798,202.99525 151.86423,201.594 C 153.30048,200.99275 154.87298,200.829 156.41673,200.829 C 158.33298,200.829 160.19048,201.3815 162.02173,201.8815 L 161.59173,204.95275 L 161.53048,204.95275 C 161.49298,203.75775 161.47048,202.924 161.06173,202.55275 C 159.98673,201.57525 158.00673,201.01525 156.09173,201.01525 C 151.18673,201.01525 148.54173,204.569 148.54173,209.239 C 148.54173,213.92775 151.39298,218.00275 156.38423,218.00275 C 157.88173,218.00275 159.03798,217.70025 160.39673,217.094 L 160.39673,211.87775 L 157.69423,211.87775 L 157.69423,211.5765 L 162.81673,211.5765 L 162.81673,211.87775 z"
           id="path2426"
           style="fill:#53301a;fill-opacity:1;fill-rule:nonzero;stroke:none" />
        <path
           d="M 141.23673,201.19525 C 141.08298,201.999 140.95798,203.289 140.87798,204.34275 L 140.81798,204.34275 C 140.80923,203.659 140.73548,202.87025 140.63298,202.1315 C 139.46548,201.614 137.76923,201.4515 136.50423,201.4515 C 135.22923,201.4515 134.08923,201.54025 133.07173,201.6265 L 133.07173,209.2365 L 135.97673,209.23775 C 136.88923,209.23775 137.63298,209.194 138.39298,209.11275 C 139.16173,209.03025 139.27673,208.924 139.37798,207.0215 L 139.47673,207.0215 C 139.40673,208.66025 139.41423,210.30275 139.47673,211.94025 L 139.37798,211.94025 C 139.32048,210.98025 139.31548,210.43025 139.14673,210.129 C 138.78173,209.48025 137.13798,209.499 135.90923,209.499 L 133.07173,209.5015 L 133.07173,217.4365 C 134.45923,217.5215 135.85048,217.6015 137.24048,217.6015 C 138.51798,217.6015 139.80423,217.569 140.85048,217.059 C 141.09048,216.219 141.32048,215.25525 141.46673,214.4515 L 141.57548,214.4515 C 141.45423,215.639 141.38548,216.83275 141.33173,218.02525 L 129.17798,218.02525 L 129.17798,217.9515 C 130.19173,217.91275 130.69923,217.94025 131.07298,217.59525 C 131.45923,217.24025 131.47923,216.40025 131.51798,215.644 C 131.54298,215.16275 131.56923,214.23275 131.56923,213.24025 L 131.56923,205.97525 C 131.56923,204.9815 131.54173,204.09275 131.52923,203.58275 C 131.50423,202.5965 131.40423,201.91775 131.06923,201.65275 C 130.66923,201.33775 130.20423,201.30775 129.19048,201.26775 L 129.19048,201.19525 L 141.23673,201.19525 z"
           id="path2428"
           style="fill:#53301a;fill-opacity:1;fill-rule:nonzero;stroke:none" />
        <path
           d="M 269.19548,201.19525 C 269.04173,201.999 268.91798,203.289 268.83548,204.34275 L 268.77673,204.34275 C 268.76673,203.659 268.69423,202.87025 268.59173,202.1315 C 267.42423,201.61275 265.72923,201.4515 264.46173,201.4515 C 263.18798,201.4515 262.04798,201.54025 261.03048,201.6265 L 261.03048,209.2365 L 263.93423,209.23775 C 264.84798,209.23775 265.59048,209.194 266.35173,209.11275 C 267.12048,209.03025 267.23548,208.924 267.33673,207.0215 L 267.43423,207.0215 C 267.36423,208.66025 267.37298,210.30275 267.43423,211.94025 L 267.33673,211.94025 C 267.27923,210.98025 267.27423,210.43025 267.10423,210.129 C 266.74048,209.48025 265.09673,209.499 263.86798,209.499 L 261.03048,209.5015 L 261.03048,217.4365 C 262.41673,217.5215 263.80923,217.6015 265.19923,217.6015 C 266.47673,217.6015 267.76298,217.569 268.80923,217.059 C 269.04923,216.219 269.27798,215.25525 269.42548,214.4515 L 269.53298,214.4515 C 269.41173,215.639 269.34298,216.83275 269.28923,218.02525 L 257.13673,218.02525 L 257.13673,217.9515 C 258.15048,217.91275 258.65798,217.94025 259.03173,217.59525 C 259.41798,217.24025 259.43673,216.40025 259.47673,215.644 C 259.50173,215.16275 259.52798,214.23275 259.52798,213.24025 L 259.52798,205.97525 C 259.52798,204.9815 259.50048,204.09275 259.48673,203.58275 C 259.46298,202.5965 259.36298,201.91775 259.02798,201.65275 C 258.62798,201.33775 258.16298,201.30775 257.14923,201.26775 L 257.14923,201.19525 L 269.19548,201.19525 z"
           id="path2430"
           style="fill:#53301a;fill-opacity:1;fill-rule:nonzero;stroke:none" />
        <path
           d="M 227.36173,201.19525 C 227.20923,201.999 227.08423,203.289 227.00298,204.34275 L 226.94298,204.34275 C 226.93423,203.659 226.86173,202.87025 226.75798,202.1315 C 225.59048,201.61275 223.89548,201.4515 222.62923,201.4515 C 221.35423,201.4515 220.21423,201.54025 219.19798,201.6265 L 219.19798,209.2365 L 222.10173,209.23775 C 223.01548,209.23775 223.75798,209.194 224.51798,209.11275 C 225.28673,209.03025 225.40173,208.924 225.50423,207.0215 L 225.60173,207.0215 C 225.53173,208.66025 225.53923,210.30275 225.60173,211.94025 L 225.50423,211.94025 C 225.44548,210.98025 225.44048,210.43025 225.27173,210.129 C 224.90798,209.48025 223.26298,209.499 222.03423,209.499 L 219.19798,209.5015 L 219.19798,217.4365 C 220.58423,217.5215 221.97673,217.6015 223.36548,217.6015 C 224.64298,217.6015 225.92923,217.569 226.97548,217.059 C 227.21673,216.219 227.44548,215.25525 227.59173,214.4515 L 227.70048,214.4515 C 227.57923,215.639 227.51048,216.83275 227.45673,218.02525 L 215.30298,218.02525 L 215.30298,217.9515 C 216.31798,217.91275 216.82423,217.94025 217.19923,217.59525 C 217.58548,217.24025 217.60423,216.40025 217.64298,215.644 C 217.66798,215.16275 217.69423,214.23275 217.69423,213.24025 L 217.69423,205.97525 C 217.69423,204.9815 217.66673,204.09275 217.65423,203.58275 C 217.62923,202.5965 217.52923,201.91775 217.19423,201.65275 C 216.79548,201.33775 216.33048,201.30775 215.31548,201.26775 L 215.31548,201.19525 L 227.36173,201.19525 z"
           id="path2432"
           style="fill:#53301a;fill-opacity:1;fill-rule:nonzero;stroke:none" />
        <path
           d="M 249.54423,218.02525 L 248.54423,218.02525 C 244.58673,212.924 239.75923,206.81525 236.25048,202.34775 L 236.25048,213.12775 C 236.25048,214.24775 236.27798,214.9765 236.31048,215.899 C 236.37048,217.65775 236.53048,217.90025 238.33298,217.9515 L 238.33298,218.02525 L 233.81048,218.02525 L 233.81048,217.95275 C 235.65423,217.89775 235.73923,217.6315 235.83548,215.89275 C 235.86298,215.39775 235.88798,214.419 235.88798,213.769 L 235.88798,202.809 C 235.88798,201.55525 234.72548,201.294 233.70173,201.26775 L 233.70173,201.19525 L 237.52173,201.19525 C 240.58798,205.6515 247.12423,213.66525 249.18173,216.114 L 249.18173,206.09275 C 249.18173,204.97275 249.15173,204.244 249.12048,203.3215 C 249.06048,201.56275 248.89923,201.3215 247.09673,201.269 L 247.09673,201.19525 L 251.60923,201.19525 L 251.60923,201.269 C 249.76673,201.324 249.68173,201.589 249.58548,203.329 C 249.55673,203.82275 249.54423,204.80275 249.54423,205.45275 L 249.54423,218.02525 z"
           id="path2434"
           style="fill:#53301a;fill-opacity:1;fill-rule:nonzero;stroke:none" />
        <path
           d="M 102.94173,201.6615 C 103.93298,201.6615 104.79673,201.69525 105.45923,201.764 C 106.14048,201.83525 106.30673,201.984 106.41673,202.6415 C 106.48673,203.06525 106.58298,204.34275 106.59923,204.54275 L 106.69923,204.54275 L 106.85548,201.19525 L 93.83423,201.19525 L 93.92423,204.54275 L 94.02423,204.54275 C 94.04548,204.34275 94.16673,203.06525 94.24548,202.6415 C 94.36798,201.984 94.53673,201.83525 95.21923,201.764 C 95.88423,201.69525 96.74798,201.6615 97.73923,201.6615 L 99.60048,201.6615 L 99.60048,215.65525 C 99.60048,217.8115 99.22423,217.90275 97.30173,217.9515 L 97.30173,218.02525 L 103.43298,218.02525 L 103.43298,217.9515 C 101.23298,217.8965 101.18298,217.7315 101.18423,215.07025 L 101.18423,201.6615 L 102.94173,201.6615 z"
           id="path2436"
           style="fill:#53301a;fill-opacity:1;fill-rule:nonzero;stroke:none" />
        <path
           d="M 120.61423,201.6615 C 121.60673,201.6615 122.47048,201.69525 123.13298,201.764 C 123.81423,201.83525 123.98048,201.984 124.08923,202.6415 C 124.16048,203.06525 124.25673,204.34275 124.27298,204.54275 L 124.37298,204.54275 L 124.52923,201.19525 L 111.50798,201.19525 L 111.59798,204.54275 L 111.69798,204.54275 C 111.71923,204.34275 111.83923,203.06525 111.91923,202.6415 C 112.04173,201.984 112.21048,201.83525 112.89298,201.764 C 113.55673,201.69525 114.42173,201.6615 115.41298,201.6615 L 117.27423,201.6615 L 117.27423,215.65525 C 117.27423,217.8115 116.89673,217.90275 114.97548,217.9515 L 114.97548,218.02525 L 121.10548,218.02525 L 121.10548,217.9515 C 118.90548,217.8965 118.85673,217.7315 118.85798,215.07025 L 118.85798,201.6615 L 120.61423,201.6615 z"
           id="path2438"
           style="fill:#53301a;fill-opacity:1;fill-rule:nonzero;stroke:none" />
        <path
           d="M 283.35173,201.6615 C 284.34298,201.6615 285.20673,201.69525 285.86923,201.764 C 286.55048,201.83525 286.71548,201.984 286.82548,202.6415 C 286.89673,203.06525 286.99298,204.34275 287.00923,204.54275 L 287.10923,204.54275 L 287.26548,201.19525 L 274.24423,201.19525 L 274.33423,204.54275 L 274.43423,204.54275 C 274.45423,204.34275 274.57548,203.06525 274.65548,202.6415 C 274.77798,201.984 274.94673,201.83525 275.62923,201.764 C 276.29298,201.69525 277.15673,201.6615 278.14923,201.6615 L 280.01048,201.6615 L 280.01048,215.65525 C 280.01048,217.8115 279.63298,217.90275 277.71173,217.9515 L 277.71173,218.02525 L 283.84173,218.02525 L 283.84173,217.9515 C 281.64173,217.8965 281.59298,217.7315 281.59423,215.07025 L 281.59423,201.6615 L 283.35173,201.6615 z"
           id="path2440"
           style="fill:#53301a;fill-opacity:1;fill-rule:nonzero;stroke:none" />
        <path
           d="M 89.41798,209.054 C 89.41798,214.30275 85.73798,218.39275 80.38923,218.39275 C 75.25923,218.39275 72.33673,214.654 72.33673,209.734 C 72.33673,204.4865 75.75298,200.829 81.05923,200.829 C 86.13923,200.829 89.41798,203.9215 89.41798,209.054 M 87.63923,209.879 C 87.63923,205.35775 85.62173,201.149 80.53798,201.149 C 76.07923,201.149 74.06048,204.63775 74.06048,208.7165 C 74.06048,213.119 76.12173,218.014 81.20798,218.014 C 85.88048,218.014 87.63923,213.9665 87.63923,209.879"
           id="path2442"
           style="fill:#53301a;fill-opacity:1;fill-rule:nonzero;stroke:none" />
        <path
           d="M 56.23298,203.559 C 56.19548,202.3415 56.14673,201.86025 55.78923,201.5915 C 55.49798,201.37275 55.01423,201.29025 54.17548,201.26775 L 54.17548,201.19525 L 61.69673,201.19775 C 63.80798,201.19775 65.82798,201.74525 65.82798,204.259 C 65.82798,206.439 63.68423,208.20025 61.61173,208.6365 C 64.26673,208.93525 66.64798,209.77775 66.64798,212.73525 C 66.64798,214.89025 64.97923,218.02525 60.29798,218.02525 L 55.34673,218.02525 C 55.99048,217.6915 56.08673,217.5515 56.17298,216.44525 C 56.24048,215.5765 56.27923,214.65525 56.27923,213.56525 L 56.28048,205.9515 C 56.28048,205.0215 56.24923,204.08275 56.23298,203.559 M 64.15923,204.66775 C 64.15923,202.31025 62.49673,201.4365 60.13673,201.4365 C 59.34423,201.4365 58.48173,201.54275 57.77923,201.70275 L 57.77923,208.57525 L 59.31048,208.579 C 62.74173,208.579 64.15923,207.33525 64.15923,204.66775 M 64.92548,213.05275 C 64.92548,209.929 63.25673,208.86775 60.08798,208.86775 L 57.77923,208.86775 L 57.77923,217.49525 C 58.46798,217.6465 59.29298,217.76525 60.05923,217.76525 C 63.90173,217.76525 64.92548,215.294 64.92548,213.05275"
           id="path2444"
           style="fill:#53301a;fill-opacity:1;fill-rule:nonzero;stroke:none" />
        <path
           d="M 211.11798,201.26775 C 210.47673,201.30025 210.28173,201.3465 209.98673,201.64775 C 209.62673,202.014 209.43923,202.50025 208.87923,203.95025 C 208.06548,206.05275 205.39423,213.06775 204.30298,215.9165 C 204.00298,216.699 203.67173,217.6365 203.52423,218.31275 L 202.85423,218.31275 C 202.69923,217.36275 197.56423,204.02525 197.17423,203.0165 C 196.71548,201.82775 196.52923,201.3965 195.10548,201.26775 L 195.10548,201.19525 L 200.78048,201.19525 L 200.78048,201.26775 L 200.29423,201.26775 C 198.64173,201.26775 198.52298,201.7665 198.86298,202.8215 C 199.50048,204.7965 203.07798,214.32775 203.80048,216.16775 C 203.80048,216.16775 207.70423,205.89525 208.34923,203.89775 C 208.94923,202.04025 208.74173,201.844 208.33548,201.5565 C 208.02423,201.3365 207.24298,201.30525 206.63173,201.26775 L 206.63173,201.19525 L 211.11798,201.19525 L 211.11798,201.26775 z"
           id="path2446"
           style="fill:#53301a;fill-opacity:1;fill-rule:nonzero;stroke:none" />
      </g>
    </g>
  </g>
</svg>
