<?xml version="1.0" encoding="UTF-8" standalone="no"?>
<!-- Created with Inkscape (http://www.inkscape.org/) -->

<svg
   xmlns:dc="http://purl.org/dc/elements/1.1/"
   xmlns:cc="http://creativecommons.org/ns#"
   xmlns:rdf="http://www.w3.org/1999/02/22-rdf-syntax-ns#"
   xmlns:svg="http://www.w3.org/2000/svg"
   xmlns="http://www.w3.org/2000/svg"
   xmlns:xlink="http://www.w3.org/1999/xlink"
   version="1.1"
   width="200"
   height="55.041451"
   viewBox="0 0 199.99999 55.041448"
   id="圖層_1"
   xml:space="preserve"><metadata
   id="metadata419"><rdf:RDF><cc:Work
       rdf:about=""><dc:format>image/svg+xml</dc:format><dc:type
         rdf:resource="http://purl.org/dc/dcmitype/StillImage" /><dc:title></dc:title></cc:Work></rdf:RDF></metadata><defs
   id="defs417" />
<g
   transform="matrix(1.4639466,0,0,1.4639466,-55.408915,-747.09442)"
   id="g3">
	<defs
   id="defs5">
		<polyline
   id="SVGID_1_"
   points="829.89,595.28 841.89,0 0,0 -12,595.28   " />
	</defs>
	<clipPath
   id="SVGID_2_">
		<use
   id="use9"
   style="overflow:visible"
   x="0"
   y="0"
   width="841.89001"
   height="595.28003"
   xlink:href="#SVGID_1_" />
	</clipPath>
	<g
   clip-path="url(#SVGID_2_)"
   id="g11">
		<defs
   id="defs13">
			<line
   id="SVGID_3_"
   x1="649.33801"
   y1="-0.001"
   x2="170.625"
   y2="-0.001" />
		</defs>
		<defs
   id="defs16">
			<path
   d="M 168.447,520.63"
   id="SVGID_4_" />
		</defs>
		<clipPath
   id="SVGID_5_">
			<use
   id="use20"
   style="overflow:visible"
   x="0"
   y="0"
   width="841.89001"
   height="595.28003"
   xlink:href="#SVGID_3_" />
		</clipPath>
		<clipPath
   id="SVGID_6_">
			<use
   id="use23"
   style="overflow:visible"
   x="0"
   y="0"
   width="841.89001"
   height="595.28003"
   xlink:href="#SVGID_4_" />
		</clipPath>
	</g>
	<g
   clip-path="url(#SVGID_2_)"
   id="g25">
		<defs
   id="defs27">
			<polyline
   id="SVGID_7_"
   points="841.89,520.63 841.89,-0.001 368.746,-0.001    " />
		</defs>
		<clipPath
   id="SVGID_8_">
			<use
   id="use31"
   style="overflow:visible"
   x="0"
   y="0"
   width="841.89001"
   height="595.28003"
   xlink:href="#SVGID_7_" />
		</clipPath>
	</g>
	<g
   clip-path="url(#SVGID_2_)"
   id="g33">
		<defs
   id="defs35">
			<polyline
   id="SVGID_9_"
   points="841.89,520.63 841.89,-0.001 565.746,-0.001    " />
		</defs>
		<clipPath
   id="SVGID_10_">
			<use
   id="use39"
   style="overflow:visible"
   x="0"
   y="0"
   width="841.89001"
   height="595.28003"
   xlink:href="#SVGID_9_" />
		</clipPath>
	</g>
	<g
   clip-path="url(#SVGID_2_)"
   id="g41">
		<defs
   id="defs43">
			<rect
   width="841.88898"
   height="595.28101"
   x="0"
   y="0"
   id="SVGID_11_" />
		</defs>
		<clipPath
   id="SVGID_12_">
			<use
   id="use47"
   style="overflow:visible"
   x="0"
   y="0"
   width="841.89001"
   height="595.28003"
   xlink:href="#SVGID_11_" />
		</clipPath>
	</g>
	<g
   clip-path="url(#SVGID_2_)"
   id="g49">
		<defs
   id="defs51">
			<rect
   width="841.88898"
   height="595.28101"
   x="0"
   y="0"
   id="SVGID_13_" />
		</defs>
		<clipPath
   id="SVGID_14_">
			<use
   id="use55"
   style="overflow:visible"
   x="0"
   y="0"
   width="841.89001"
   height="595.28003"
   xlink:href="#SVGID_13_" />
		</clipPath>
	</g>
	<g
   clip-path="url(#SVGID_2_)"
   id="g57">
		<defs
   id="defs59">
			<rect
   width="841.88898"
   height="595.28101"
   x="0"
   y="0"
   id="SVGID_15_" />
		</defs>
		<clipPath
   id="SVGID_16_">
			<use
   id="use63"
   style="overflow:visible"
   x="0"
   y="0"
   width="841.89001"
   height="595.28003"
   xlink:href="#SVGID_15_" />
		</clipPath>
	</g>
	<g
   clip-path="url(#SVGID_2_)"
   id="g65">
		<defs
   id="defs67">
			<rect
   width="841.88898"
   height="595.28101"
   x="0"
   y="0"
   id="SVGID_17_" />
		</defs>
		<clipPath
   id="SVGID_18_">
			<use
   id="use71"
   style="overflow:visible"
   x="0"
   y="0"
   width="841.89001"
   height="595.28003"
   xlink:href="#SVGID_17_" />
		</clipPath>
	</g>
	<g
   clip-path="url(#SVGID_2_)"
   id="g73">
		<defs
   id="defs75">
			<rect
   width="841.88898"
   height="595.28101"
   x="0"
   y="0"
   id="SVGID_19_" />
		</defs>
		<clipPath
   id="SVGID_20_">
			<use
   id="use79"
   style="overflow:visible"
   x="0"
   y="0"
   width="841.89001"
   height="595.28003"
   xlink:href="#SVGID_19_" />
		</clipPath>
	</g>
	<g
   clip-path="url(#SVGID_2_)"
   id="g81">
		<defs
   id="defs83">
			<rect
   width="841.88898"
   height="595.28101"
   x="0"
   y="0"
   id="SVGID_21_" />
		</defs>
		<clipPath
   id="SVGID_22_">
			<use
   id="use87"
   style="overflow:visible"
   x="0"
   y="0"
   width="841.89001"
   height="595.28003"
   xlink:href="#SVGID_21_" />
		</clipPath>
	</g>
	<g
   clip-path="url(#SVGID_2_)"
   id="g89">
		<defs
   id="defs91">
			<rect
   width="841.88898"
   height="595.28101"
   x="0"
   y="0"
   id="SVGID_23_" />
		</defs>
		<clipPath
   id="SVGID_24_">
			<use
   id="use95"
   style="overflow:visible"
   x="0"
   y="0"
   width="841.89001"
   height="595.28003"
   xlink:href="#SVGID_23_" />
		</clipPath>
	</g>
	<g
   clip-path="url(#SVGID_2_)"
   id="g97">
		<defs
   id="defs99">
			<rect
   width="841.88898"
   height="595.28101"
   x="0"
   y="0"
   id="SVGID_25_" />
		</defs>
		<clipPath
   id="SVGID_26_">
			<use
   id="use103"
   style="overflow:visible"
   x="0"
   y="0"
   width="841.89001"
   height="595.28003"
   xlink:href="#SVGID_25_" />
		</clipPath>
	</g>
	<g
   clip-path="url(#SVGID_2_)"
   id="g105">
		<defs
   id="defs107">
			<rect
   width="841.88898"
   height="595.28101"
   x="0"
   y="0"
   id="SVGID_27_" />
		</defs>
		<clipPath
   id="SVGID_28_">
			<use
   id="use111"
   style="overflow:visible"
   x="0"
   y="0"
   width="841.89001"
   height="595.28003"
   xlink:href="#SVGID_27_" />
		</clipPath>
	</g>
	<g
   clip-path="url(#SVGID_2_)"
   id="g113">
		<defs
   id="defs115">
			<rect
   width="841.88898"
   height="595.28101"
   x="0"
   y="0"
   id="SVGID_29_" />
		</defs>
		<clipPath
   id="SVGID_30_">
			<use
   id="use119"
   style="overflow:visible"
   x="0"
   y="0"
   width="841.89001"
   height="595.28003"
   xlink:href="#SVGID_29_" />
		</clipPath>
	</g>
	<g
   clip-path="url(#SVGID_2_)"
   id="g121">
		<defs
   id="defs123">
			<rect
   width="841.88898"
   height="595.28101"
   x="0"
   y="0"
   id="SVGID_31_" />
		</defs>
		<clipPath
   id="SVGID_32_">
			<use
   id="use127"
   style="overflow:visible"
   x="0"
   y="0"
   width="841.89001"
   height="595.28003"
   xlink:href="#SVGID_31_" />
		</clipPath>
		
		<path
   d="m 58.788,542.476 h 6.173 c 0.17,0 0.301,-0.141 0.301,-0.305 v -2.957 c 0,-0.174 -0.131,-0.307 -0.301,-0.307 h -6.173 c -0.161,0 -0.298,0.133 -0.298,0.307 v 2.957 c 0,0.164 0.137,0.305 0.298,0.305 m 1.394,-2.575 h 3.348 l 0.118,0.125 c 0,0.066 -0.056,0.123 -0.118,0.277 h -3.348 c -0.065,-0.154 -0.118,-0.211 -0.118,-0.277 l 0.118,-0.125 z m 0,1.245 h 3.348 l 0.118,0.123 c 0,0.07 -0.056,0.121 -0.118,0.281 h -3.348 c -0.065,-0.16 -0.118,-0.211 -0.118,-0.281 l 0.118,-0.123 z"
   clip-path="url(#SVGID_32_)"
   id="path131"
   style="fill:#221815" />
		<path
   d="m 105.449,539.673 c -0.042,-0.34 -0.25,-0.719 -0.825,-0.719 -0.571,0 -3.647,0.041 -3.647,0.041 l -2.089,2.799 -0.04,0.104 v 0.107 h 1.353 l 1.394,-1.824 2.373,0.045 c 0,0 0.085,1.016 0.085,1.354 0,0.34 0.118,0.426 0.571,0.469 0.451,0.045 2.091,0.045 2.091,0.045 v -1.148 h -1.228 c 0,-0.002 0,-0.935 -0.038,-1.273"
   clip-path="url(#SVGID_32_)"
   id="path133"
   style="fill:#221815" />
		<polygon
   points="112.897,542.132 115.075,538.911 113.686,538.864 111.426,542.132 "
   clip-path="url(#SVGID_32_)"
   id="polygon135"
   style="fill:#221815" />
		<path
   d="m 117.575,538.995 c -0.496,0 -2.175,-0.084 -2.175,-0.084 l -0.039,1.229 h 2.049 l 1.598,2.033 1.478,-0.08 c 0,0 -1.478,-2.082 -1.727,-2.42 -0.241,-0.34 -0.693,-0.678 -1.184,-0.678"
   clip-path="url(#SVGID_32_)"
   id="path137"
   style="fill:#221815" />
		<polygon
   points="153.388,538.741 151.67,538.698 147.979,543.149 149.659,543.196 "
   clip-path="url(#SVGID_32_)"
   id="polygon139"
   style="fill:#221815" />
		<path
   d="m 157.075,538.659 c -0.452,-0.045 -2.912,0.082 -2.912,0.082 l 0.045,1.182 2.497,0.094 2.703,3.219 1.805,-0.125 c 0,0 -2.746,-3.479 -3.072,-3.816 -0.329,-0.341 -0.612,-0.597 -1.066,-0.636"
   clip-path="url(#SVGID_32_)"
   id="path141"
   style="fill:#221815" />
		<rect
   width="8.8100004"
   height="1.189"
   x="162.319"
   y="540.90302"
   clip-path="url(#SVGID_32_)"
   id="rect143"
   style="fill:#221815" />
		<path
   d="m 64.897,544.618 c -0.415,0 -5.962,-0.033 -5.962,-0.033 l 0.264,-0.299 h 6.192 v -1.404 l -7.685,0.027 0.342,-0.322 v -1.057 c 0,0 -0.208,-0.352 -0.342,-0.352 h -0.497 l 0.861,-0.863 v -0.979 c 0,-0.164 -0.05,-0.377 -0.287,-0.43 -0.232,-0.059 -4.336,0 -4.336,0 -0.259,0 -0.44,0.053 -0.44,0.377 v 8.545 h 1.773 v -3.244 l 1.257,-0.029 0.834,-0.863 0.021,0.594 h 0.659 l -2.302,1.814 h 1.826 l 0.528,-0.406 h 1.096 l -2.429,2.135 h 2.012 l 2.352,-2.078 h 1.284 l -2.43,2.078 h 1.959 l 2.457,-2.078 v 2.078 h 1.542 c 0,0 0.022,-2.268 0.022,-2.621 0,-0.353 -0.155,-0.59 -0.571,-0.59 M 54.78,543.827 v -1.566 h 1.698 l -1.698,1.566 z m 0,-2.162 v -1.215 c 0,-0.164 0.128,-0.379 0.366,-0.355 0.239,0.023 1.332,0 1.332,0 l -1.698,1.57 z"
   clip-path="url(#SVGID_32_)"
   id="path145"
   style="fill:#221815" />
		<path
   d="m 47.138,541.935 3.454,-3.027 h -1.987 l -3.217,2.813 v -3.088 h -1.644 v 3.057 l -3.347,-2.781 h -2.014 l 3.581,3 h 1.78 v 0.217 h -5.361 v 1.514 l 4.088,0.02 -4.622,4.195 2.287,-0.021 4.597,-4.193 v 3.625 c 0,0.41 0.319,0.568 0.787,0.568 h 5.072 v -1.623 H 46.33 v -2.57 h 4.262 v -1.514 h -5.204 v -0.189 h 1.75 z"
   clip-path="url(#SVGID_32_)"
   id="path147"
   style="fill:#221815" />
		<path
   d="m 92.251,539.034 -1.355,-0.039 -0.806,0.887 h -1.233 l -0.049,-0.807 H 87.29 l 0.05,0.77 h -1.513 l -0.047,-0.811 h -1.602 l 0.049,0.848 h -1.102 l -0.912,-0.887 -1.599,-0.041 0.86,0.928 h -1.023 v 0.979 l 2.334,-0.084 0.781,0.891 h -2.911 v 1.061 h 4.999 v 0.635 h -4.999 v 1.145 h 4.999 v 0.551 h -5.251 v 0.973 h 1.973 l -1.599,1.621 1.886,-0.043 1.597,-1.578 h 1.394 v 1.658 h 1.8 v -1.607 h 1.355 l 1.641,1.57 h 1.841 l -1.715,-1.57 h 2.007 v -0.979 h -5.088 v -0.635 h 4.88 v -1.063 h -4.88 v -0.678 h 4.836 v -1.02 l -2.909,0.045 0.739,-0.855 h 2.501 v -0.975 h -0.905 l 0.494,-0.89 z m -4.567,2.567 h -2.355 l -0.659,-0.74 h 3.73 l -0.716,0.74 z"
   clip-path="url(#SVGID_32_)"
   id="path149"
   style="fill:#221815" />
		<path
   d="m 98.849,541.897 v -2.357 c 0,-0.377 -0.185,-0.564 -0.554,-0.564 -0.37,0 -1.579,-0.021 -1.579,-0.021 -0.245,0 -0.907,-0.09 -1.47,-0.09 -0.579,0 -0.861,0.469 -0.822,0.721 0.04,0.26 0,8.066 0,8.066 h 1.558 v -2.348 h 1.308 v 2.385 h 1.559 v -5.684 H 98.81 l 0.039,-0.108 z m -1.559,2.178 h -1.353 v -1.318 h 1.353 v 1.318 z m 0,-2.635 h -1.353 v -1.184 h 1.353 v 1.184 z"
   clip-path="url(#SVGID_32_)"
   id="path151"
   style="fill:#221815" />
		<path
   d="m 106.511,543.661 c 0.325,-0.512 -0.412,-0.934 -0.862,-0.979 -0.45,-0.037 -6.145,-0.037 -6.145,-0.037 l -0.042,1.182 h 4.796 l -1.435,1.188 -0.905,-0.76 h -2.169 l 2.047,1.57 -2.208,1.863 h 2.129 l 1.228,-0.934 1.431,0.977 2.175,-0.043 -2.422,-1.785 1.565,-1.352 c 0,10e-4 0.492,-0.382 0.817,-0.89"
   clip-path="url(#SVGID_32_)"
   id="path153"
   style="fill:#221815" />
		<polygon
   points="110.403,538.911 107.615,543.192 109.088,543.235 109.088,547.731 110.692,547.731 110.692,541.284 112.208,538.911 "
   clip-path="url(#SVGID_32_)"
   id="polygon155"
   style="fill:#221815" />
		<path
   d="m 118.724,542.683 h -7.376 v 1.316 h 2.214 l -1.762,3.861 h 1.675 l 1.761,-3.777 h 2.79 l 0.04,3.777 1.52,-0.043 c 0,0 0.034,-4.072 0.034,-4.371 0,-0.297 -0.45,-0.763 -0.896,-0.763"
   clip-path="url(#SVGID_32_)"
   id="path157"
   style="fill:#221815" />
		<path
   d="m 126.259,538.741 -1.762,0.078 -0.486,0.551 h -2.381 v 1.275 h 1.558 l -2.005,2.547 h 1.721 v 4.416 h 1.593 v -0.98 h 6.882 v 1.061 h 1.602 v -5.344 c 0,-0.467 -0.202,-0.891 -0.863,-0.891 h -7.784 l 0.714,-0.744 h 8.422 v -1.377 h -7.576 l 0.365,-0.592 z m -1.717,4.016 h 6.838 v 0.639 h -6.838 v -0.639 z m 0,1.953 h 6.838 v 0.717 h -6.838 v -0.717 z"
   clip-path="url(#SVGID_32_)"
   id="path159"
   style="fill:#221815" />
		<path
   d="m 138.676,538.659 c -0.699,0 -2.336,0.039 -3.077,0.039 -0.727,0 -0.902,0.934 -0.902,1.482 v 7.334 h 1.683 v -1.096 c 0,0 0.125,0.252 0.824,-0.043 0.692,-0.295 1.922,-2.416 2.212,-3.227 0.28,-0.805 -0.369,-0.973 -0.576,-0.973 -0.205,0 -0.9,-0.045 -0.9,-0.045 0.244,-0.166 1.641,-2.459 1.641,-2.795 0.001,-0.34 -0.208,-0.676 -0.905,-0.676 m -2.044,1.358 c 0.405,-0.045 1.019,0 1.019,0 l -1.353,2.285 v -1.564 c 0,-0.387 -0.077,-0.682 0.334,-0.721 m -0.252,5.382 v -1.4 c 0,-0.422 -0.121,-0.637 0.292,-0.637 h 1.102 l -1.394,2.037 z"
   clip-path="url(#SVGID_32_)"
   id="path161"
   style="fill:#221815" />
		<path
   d="m 141.585,543.534 c 0,0 3.568,0.043 4.1,0 0.531,-0.045 0.61,-0.512 0.61,-0.512 v -3.729 c 0,-0.34 -0.364,-0.596 -0.898,-0.596 -0.533,0 -4.263,-0.039 -4.797,0 -0.529,0.043 -0.619,0.639 -0.619,1.018 v 7.039 c 0,0.424 0.456,0.637 0.952,0.684 0.485,0.041 2.58,-0.047 2.58,-0.047 v -1.441 h -1.928 v -2.416 z m -0.042,-3.611 h 3.237 v 0.555 h -3.237 v -0.555 z m -0.037,1.83 h 3.273 v 0.551 h -3.273 v -0.551 z"
   clip-path="url(#SVGID_32_)"
   id="path163"
   style="fill:#221815" />
		<polygon
   points="145.442,547.394 147.322,547.438 145.685,545.786 147.49,543.872 145.722,543.872 144.722,544.915 143.92,544.083 142.158,544.083 "
   clip-path="url(#SVGID_32_)"
   id="polygon165"
   style="fill:#221815" />
		<path
   d="m 157.77,543.063 -1.474,0.047 1.64,2.971 h -6.803 l 3.155,-4.713 -1.64,-0.037 c 0,0 -2.989,4.068 -3.199,4.496 -0.199,0.42 -0.199,1.525 0.619,1.564 0.82,0.047 7.989,0 8.481,0 0.49,0 1.438,-0.553 1.226,-1.145 -0.201,-0.595 -2.005,-3.183 -2.005,-3.183"
   clip-path="url(#SVGID_32_)"
   id="path167"
   style="fill:#221815" />
		<path
   d="m 172.606,538.659 c -0.779,-0.045 -10.449,0.039 -10.449,0.039 l -0.044,1.273 h 9.757 v 7.42 h 1.759 v -7.375 c 0,-0.722 -0.245,-1.318 -1.023,-1.357"
   clip-path="url(#SVGID_32_)"
   id="path169"
   style="fill:#221815" />
		<path
   d="m 170.353,542.983 h -6.683 c -0.614,0 -1.229,0.08 -1.264,0.594 -0.048,0.506 0.035,1.906 0.035,2.33 0,0.42 0.493,0.721 1.068,0.721 0.573,0 6.265,0 6.722,-0.043 0.451,-0.039 1.065,-0.166 1.065,-0.799 0,-0.643 -0.039,-1.531 -0.039,-1.998 -0.001,-0.469 -0.333,-0.805 -0.904,-0.805 m -0.816,2.461 h -5.534 v -1.273 h 5.534 v 1.273 z"
   clip-path="url(#SVGID_32_)"
   id="path171"
   style="fill:#221815" />
		<polygon
   points="78.327,539.021 78.327,540.292 73.594,540.292 73.594,546.644 78.875,546.644 78.875,547.927 66.546,547.927 66.546,546.644 71.91,546.644 71.91,540.292 67.206,540.292 67.206,539.021 "
   clip-path="url(#SVGID_32_)"
   id="polygon173"
   style="fill:#221815" />
	</g>
	<g
   clip-path="url(#SVGID_2_)"
   id="g175">
		<defs
   id="defs177">
			<path
   d="m 51.464,529.104 v -4.725 c 1.293,2.627 4.736,4.674 8.934,5.215 -0.905,0.08 -1.833,0.125 -2.783,0.125 -2.17,10e-4 -4.243,-0.222 -6.151,-0.615 m -10.518,-8.056 c 0,-4.779 7.488,-8.674 16.669,-8.674 9.177,0 16.664,3.895 16.664,8.674 0,2.68 -2.357,5.082 -6.051,6.674 -0.571,0.068 -1.164,0.104 -1.764,0.104 -5.427,0 -9.687,-2.723 -9.687,-6.082 0,-3.361 4.26,-6.082 9.687,-6.082 1.15,0 2.254,0.125 3.28,0.35 -1.985,-1.041 -4.523,-1.691 -7.252,-1.691 -5.166,0 -9.514,2.252 -11.028,5.326 v -5.355 c -2.409,0.488 -4.506,1.252 -6.11,2.207 v 10.412 c -2.732,-1.545 -4.408,-3.607 -4.408,-5.863 m -1.08,0 c 0,2.676 2.108,5.1 5.489,6.816 v 0.518 c 1.737,0.887 3.811,1.564 6.11,2.018 v -0.492 c 1.919,0.379 3.988,0.586 6.151,0.586 2.946,0 5.727,-0.383 8.178,-1.064 2.09,-0.42 3.915,-1.232 5.348,-2.279 2.63,-1.648 4.22,-3.781 4.22,-6.102 0,-5.205 -7.972,-9.447 -17.746,-9.447 -9.778,-10e-4 -17.75,4.241 -17.75,9.446"
   id="SVGID_33_" />
		</defs>
		<clipPath
   id="SVGID_34_">
			<use
   id="use181"
   style="overflow:visible"
   x="0"
   y="0"
   width="841.89001"
   height="595.28003"
   xlink:href="#SVGID_33_" />
		</clipPath>
		
			<linearGradient
   x1="0"
   y1="595.28131"
   x2="1"
   y2="595.28131"
   id="SVGID_35_"
   gradientUnits="userSpaceOnUse"
   gradientTransform="matrix(-1.1e-6,-25.8494,-25.8494,1.1e-6,15445.242,536.1546)">
			<stop
   id="stop184"
   style="stop-color:#ffffff;stop-opacity:1"
   offset="0" />
			<stop
   id="stop186"
   style="stop-color:#f4f3f3;stop-opacity:1"
   offset="0.0937" />
			<stop
   id="stop188"
   style="stop-color:#d6d4d4;stop-opacity:1"
   offset="0.26269999" />
			<stop
   id="stop190"
   style="stop-color:#a6a2a0;stop-opacity:1"
   offset="0.4876" />
			<stop
   id="stop192"
   style="stop-color:#645c5a;stop-opacity:1"
   offset="0.75639999" />
			<stop
   id="stop194"
   style="stop-color:#231815;stop-opacity:1"
   offset="1" />
		</linearGradient>
		<rect
   width="35.495998"
   height="18.893"
   x="39.866001"
   y="511.60101"
   clip-path="url(#SVGID_34_)"
   id="rect196"
   style="fill:url(#SVGID_35_)" />
	</g>
	<g
   clip-path="url(#SVGID_2_)"
   id="g198">
		<defs
   id="defs200">
			<path
   d="m 51.182,529.849 -0.001,-7.436 c 0.311,3.936 5.337,7.068 11.623,7.068 1.56,0 2.911,-0.141 4.092,-0.391 -2.702,0.891 -5.883,1.402 -9.28,1.402 -2.268,0.001 -4.44,-0.225 -6.434,-0.643 m -11.316,-8.801 c 0,-5.205 7.973,-9.447 17.75,-9.447 9.774,0 17.746,4.242 17.746,9.447 0,1.947 -1.117,3.758 -3.026,5.264 -1.755,1.115 -4.167,1.734 -6.816,1.734 -5.378,0 -9.448,-2.773 -9.448,-6.291 0,-3.518 4.087,-6.262 9.467,-6.262 1.496,0 2.912,0.117 4.176,0.508 -1.94,-0.898 -4.328,-1.492 -6.911,-1.492 -6.286,0 -11.318,3.193 -11.623,7.139 l -0.004,-7.004 c -2.138,0.465 -3.85,1.063 -5.343,1.922 v 11.535 c -3.655,-1.731 -5.968,-4.254 -5.968,-7.053 m -1.919,0 c 0,5.9 8.834,10.717 19.668,10.717 10.829,0 19.665,-4.816 19.665,-10.717 0,-5.904 -8.836,-10.719 -19.665,-10.719 -10.834,0 -19.668,4.815 -19.668,10.719"
   id="SVGID_36_" />
		</defs>
		<clipPath
   id="SVGID_37_">
			<use
   id="use204"
   style="overflow:visible"
   x="0"
   y="0"
   width="841.89001"
   height="595.28003"
   xlink:href="#SVGID_36_" />
		</clipPath>
		
			<linearGradient
   x1="0"
   y1="595.28027"
   x2="1"
   y2="595.28027"
   id="SVGID_38_"
   gradientUnits="userSpaceOnUse"
   gradientTransform="matrix(-1.1e-6,25.344,25.344,1.1e-6,-15029.157,507.0765)">
			<stop
   id="stop207"
   style="stop-color:#aaabab;stop-opacity:1"
   offset="0" />
			<stop
   id="stop209"
   style="stop-color:#c2c3c3;stop-opacity:1"
   offset="0.069" />
			<stop
   id="stop211"
   style="stop-color:#e3e4e4;stop-opacity:1"
   offset="0.1812" />
			<stop
   id="stop213"
   style="stop-color:#f8f8f8;stop-opacity:1"
   offset="0.27469999" />
			<stop
   id="stop215"
   style="stop-color:#ffffff;stop-opacity:1"
   offset="0.3371" />
			<stop
   id="stop217"
   style="stop-color:#f4f4f4;stop-opacity:1"
   offset="0.39860001" />
			<stop
   id="stop219"
   style="stop-color:#d8d6d5;stop-opacity:1"
   offset="0.5079" />
			<stop
   id="stop221"
   style="stop-color:#aaa5a4;stop-opacity:1"
   offset="0.6523" />
			<stop
   id="stop223"
   style="stop-color:#6a6260;stop-opacity:1"
   offset="0.82609999" />
			<stop
   id="stop225"
   style="stop-color:#231815;stop-opacity:1"
   offset="1" />
		</linearGradient>
		<rect
   width="39.333"
   height="21.436001"
   x="37.946999"
   y="510.32901"
   clip-path="url(#SVGID_37_)"
   id="rect227"
   style="fill:url(#SVGID_38_)" />
	</g>
	<g
   clip-path="url(#SVGID_2_)"
   id="g229">
		<defs
   id="defs231">
			<rect
   width="841.88898"
   height="595.28101"
   x="0"
   y="0"
   id="SVGID_39_" />
		</defs>
		<clipPath
   id="SVGID_40_">
			<use
   id="use235"
   style="overflow:visible"
   x="0"
   y="0"
   width="841.89001"
   height="595.28003"
   xlink:href="#SVGID_39_" />
		</clipPath>
		<polygon
   points="129.095,528.522 132.506,518.956 132.506,528.522 136.514,528.522 136.514,514.56 134.075,514.56 132.506,514.56 130.635,514.56 127.376,523.7 124.115,514.56 122.487,514.56 120.676,514.56 118.48,514.56 118.48,528.522 122.487,528.522 122.487,519.638 125.655,528.522 "
   clip-path="url(#SVGID_40_)"
   id="polygon237"
   style="fill:#e60012" />
		<polygon
   points="105.842,514.56 101.407,514.56 107.42,522.536 107.42,528.536 111.427,528.536 111.427,522.536 117.473,514.556 113.011,514.556 109.421,519.288 "
   clip-path="url(#SVGID_40_)"
   id="polygon239"
   style="fill:#e60012" />
		<path
   d="m 165.521,525.634 c -2.671,0 -4.836,-1.816 -4.836,-4.057 0,-2.244 2.165,-4.063 4.836,-4.063 2.669,0 4.832,1.818 4.832,4.063 0,2.24 -2.164,4.057 -4.832,4.057 m 0,-11.574 c -4.941,0 -8.947,3.365 -8.947,7.518 0,4.146 4.006,7.512 8.947,7.512 4.94,0 8.945,-3.365 8.945,-7.512 -0.001,-4.153 -4.006,-7.518 -8.945,-7.518"
   clip-path="url(#SVGID_40_)"
   id="path241"
   style="fill:#e60012" />
		<path
   d="m 146.91,517.479 c 1.837,0 3.434,0.861 4.251,2.125 h 4.394 c -1.017,-3.211 -4.501,-5.578 -8.645,-5.578 -4.939,0 -8.943,3.363 -8.943,7.512 0,4.15 4.004,7.516 8.943,7.516 4.146,0 7.628,-2.367 8.645,-5.58 h -4.394 c -0.817,1.266 -2.414,2.125 -4.251,2.125 -2.667,0 -4.831,-1.818 -4.831,-4.061 0,-2.243 2.164,-4.059 4.831,-4.059"
   clip-path="url(#SVGID_40_)"
   id="path243"
   style="fill:#e60012" />
		<polygon
   points="84.426,514.56 84.426,528.522 88.438,528.522 88.438,523.54 91.299,521.399 95.417,528.522 100.485,528.522 94.837,518.751 100.447,514.56 94.434,514.56 88.438,519.044 88.438,514.56 "
   clip-path="url(#SVGID_40_)"
   id="polygon245"
   style="fill:#e60012" />
	</g>
	<g
   clip-path="url(#SVGID_2_)"
   id="g247">
		<defs
   id="defs249">
			<rect
   width="841.88898"
   height="595.28101"
   x="0"
   y="0"
   id="SVGID_41_" />
		</defs>
		<clipPath
   id="SVGID_42_">
			<use
   id="use253"
   style="overflow:visible"
   x="0"
   y="0"
   width="841.89001"
   height="595.28003"
   xlink:href="#SVGID_41_" />
		</clipPath>
	</g>
	<g
   clip-path="url(#SVGID_2_)"
   id="g255">
		<defs
   id="defs257">
			<rect
   width="841.88898"
   height="595.28101"
   x="0"
   y="0"
   id="SVGID_43_" />
		</defs>
		<clipPath
   id="SVGID_44_">
			<use
   id="use261"
   style="overflow:visible"
   x="0"
   y="0"
   width="841.89001"
   height="595.28003"
   xlink:href="#SVGID_43_" />
		</clipPath>
	</g>
	<g
   clip-path="url(#SVGID_2_)"
   id="g263">
		<defs
   id="defs265">
			<rect
   width="841.88898"
   height="595.28101"
   x="0"
   y="0"
   id="SVGID_45_" />
		</defs>
		<clipPath
   id="SVGID_46_">
			<use
   id="use269"
   style="overflow:visible"
   x="0"
   y="0"
   width="841.89001"
   height="595.28003"
   xlink:href="#SVGID_45_" />
		</clipPath>
	</g>
	<g
   clip-path="url(#SVGID_2_)"
   id="g271">
		<defs
   id="defs273">
			<rect
   width="841.88898"
   height="595.28101"
   x="0"
   y="0"
   id="SVGID_47_" />
		</defs>
		<clipPath
   id="SVGID_48_">
			<use
   id="use277"
   style="overflow:visible"
   x="0"
   y="0"
   width="841.89001"
   height="595.28003"
   xlink:href="#SVGID_47_" />
		</clipPath>
	</g>
	<g
   clip-path="url(#SVGID_2_)"
   id="g279">
		<defs
   id="defs281">
			<rect
   width="841.88898"
   height="595.28101"
   x="0"
   y="0"
   id="SVGID_49_" />
		</defs>
		<clipPath
   id="SVGID_50_">
			<use
   id="use285"
   style="overflow:visible"
   x="0"
   y="0"
   width="841.89001"
   height="595.28003"
   xlink:href="#SVGID_49_" />
		</clipPath>
	</g>
	<g
   clip-path="url(#SVGID_2_)"
   id="g287">
		<defs
   id="defs289">
			<rect
   width="841.88898"
   height="595.28101"
   x="0"
   y="0"
   id="SVGID_51_" />
		</defs>
		<clipPath
   id="SVGID_52_">
			<use
   id="use293"
   style="overflow:visible"
   x="0"
   y="0"
   width="841.89001"
   height="595.28003"
   xlink:href="#SVGID_51_" />
		</clipPath>
	</g>
	<g
   clip-path="url(#SVGID_2_)"
   id="g295">
		<defs
   id="defs297">
			<rect
   width="841.88898"
   height="595.28101"
   x="0"
   y="0"
   id="SVGID_53_" />
		</defs>
		<clipPath
   id="SVGID_54_">
			<use
   id="use301"
   style="overflow:visible"
   x="0"
   y="0"
   width="841.89001"
   height="595.28003"
   xlink:href="#SVGID_53_" />
		</clipPath>
	</g>
	<g
   clip-path="url(#SVGID_2_)"
   id="g303">
		<defs
   id="defs305">
			<rect
   width="841.88898"
   height="595.28101"
   x="0"
   y="0"
   id="SVGID_55_" />
		</defs>
		<clipPath
   id="SVGID_56_">
			<use
   id="use309"
   style="overflow:visible"
   x="0"
   y="0"
   width="841.89001"
   height="595.28003"
   xlink:href="#SVGID_55_" />
		</clipPath>
	</g>
	<g
   clip-path="url(#SVGID_2_)"
   id="g311">
		<defs
   id="defs313">
			<rect
   width="841.88898"
   height="595.28101"
   x="0"
   y="0"
   id="SVGID_57_" />
		</defs>
		<clipPath
   id="SVGID_58_">
			<use
   id="use317"
   style="overflow:visible"
   x="0"
   y="0"
   width="841.89001"
   height="595.28003"
   xlink:href="#SVGID_57_" />
		</clipPath>
	</g>
	<g
   clip-path="url(#SVGID_2_)"
   id="g319">
		<defs
   id="defs321">
			<rect
   width="841.88898"
   height="595.28101"
   x="0"
   y="0"
   id="SVGID_59_" />
		</defs>
		<clipPath
   id="SVGID_60_">
			<use
   id="use325"
   style="overflow:visible"
   x="0"
   y="0"
   width="841.89001"
   height="595.28003"
   xlink:href="#SVGID_59_" />
		</clipPath>
	</g>
	<g
   clip-path="url(#SVGID_2_)"
   id="g327">
		<defs
   id="defs329">
			<rect
   width="841.88898"
   height="595.28101"
   x="0"
   y="0"
   id="SVGID_61_" />
		</defs>
		<clipPath
   id="SVGID_62_">
			<use
   id="use333"
   style="overflow:visible"
   x="0"
   y="0"
   width="841.89001"
   height="595.28003"
   xlink:href="#SVGID_61_" />
		</clipPath>
	</g>
	<g
   clip-path="url(#SVGID_2_)"
   id="g335">
		<defs
   id="defs337">
			<rect
   width="841.88898"
   height="595.28101"
   x="0"
   y="0"
   id="SVGID_63_" />
		</defs>
		<clipPath
   id="SVGID_64_">
			<use
   id="use341"
   style="overflow:visible"
   x="0"
   y="0"
   width="841.89001"
   height="595.28003"
   xlink:href="#SVGID_63_" />
		</clipPath>
	</g>
	<g
   clip-path="url(#SVGID_2_)"
   id="g343">
		<defs
   id="defs345">
			<rect
   width="841.88898"
   height="595.28101"
   x="0"
   y="0"
   id="SVGID_65_" />
		</defs>
		<clipPath
   id="SVGID_66_">
			<use
   id="use349"
   style="overflow:visible"
   x="0"
   y="0"
   width="841.89001"
   height="595.28003"
   xlink:href="#SVGID_65_" />
		</clipPath>
	</g>
	<g
   clip-path="url(#SVGID_2_)"
   id="g351">
		<defs
   id="defs353">
			<rect
   width="841.88898"
   height="595.28101"
   x="0"
   y="0"
   id="SVGID_67_" />
		</defs>
		<clipPath
   id="SVGID_68_">
			<use
   id="use357"
   style="overflow:visible"
   x="0"
   y="0"
   width="841.89001"
   height="595.28003"
   xlink:href="#SVGID_67_" />
		</clipPath>
	</g>
	<g
   clip-path="url(#SVGID_2_)"
   id="g359">
		<defs
   id="defs361">
			<rect
   width="841.88898"
   height="595.28101"
   x="0"
   y="0"
   id="SVGID_69_" />
		</defs>
		<clipPath
   id="SVGID_70_">
			<use
   id="use365"
   style="overflow:visible"
   x="0"
   y="0"
   width="841.89001"
   height="595.28003"
   xlink:href="#SVGID_69_" />
		</clipPath>
	</g>
	<g
   clip-path="url(#SVGID_2_)"
   id="g367">
		<defs
   id="defs369">
			<rect
   width="841.88898"
   height="595.28101"
   x="0"
   y="0"
   id="SVGID_71_" />
		</defs>
		<clipPath
   id="SVGID_72_">
			<use
   id="use373"
   style="overflow:visible"
   x="0"
   y="0"
   width="841.89001"
   height="595.28003"
   xlink:href="#SVGID_71_" />
		</clipPath>
	</g>
	<g
   clip-path="url(#SVGID_2_)"
   id="g375">
		<defs
   id="defs377">
			<rect
   width="841.88898"
   height="595.28101"
   x="0"
   y="0"
   id="SVGID_73_" />
		</defs>
		<clipPath
   id="SVGID_74_">
			<use
   id="use381"
   style="overflow:visible"
   x="0"
   y="0"
   width="841.89001"
   height="595.28003"
   xlink:href="#SVGID_73_" />
		</clipPath>
	</g>
	<g
   clip-path="url(#SVGID_2_)"
   id="g383">
		<defs
   id="defs385">
			<rect
   width="841.88898"
   height="595.28101"
   x="0"
   y="0"
   id="SVGID_75_" />
		</defs>
		<clipPath
   id="SVGID_76_">
			<use
   id="use389"
   style="overflow:visible"
   x="0"
   y="0"
   width="841.89001"
   height="595.28003"
   xlink:href="#SVGID_75_" />
		</clipPath>
	</g>
	<g
   clip-path="url(#SVGID_2_)"
   id="g391">
		<defs
   id="defs393">
			<rect
   width="841.88898"
   height="595.28101"
   x="0"
   y="0"
   id="SVGID_77_" />
		</defs>
		<clipPath
   id="SVGID_78_">
			<use
   id="use397"
   style="overflow:visible"
   x="0"
   y="0"
   width="841.89001"
   height="595.28003"
   xlink:href="#SVGID_77_" />
		</clipPath>
	</g>
	<g
   clip-path="url(#SVGID_2_)"
   id="g399">
		<defs
   id="defs401">
			<rect
   width="841.88898"
   height="595.28101"
   x="0"
   y="0"
   id="SVGID_79_" />
		</defs>
		<clipPath
   id="SVGID_80_">
			<use
   id="use405"
   style="overflow:visible"
   x="0"
   y="0"
   width="841.89001"
   height="595.28003"
   xlink:href="#SVGID_79_" />
		</clipPath>
	</g>
	<g
   clip-path="url(#SVGID_2_)"
   id="g407">
		<defs
   id="defs409">
			<rect
   width="841.88898"
   height="595.28101"
   x="0"
   y="0"
   id="SVGID_81_" />
		</defs>
		<clipPath
   id="SVGID_82_">
			<use
   id="use413"
   style="overflow:visible"
   x="0"
   y="0"
   width="841.89001"
   height="595.28003"
   xlink:href="#SVGID_81_" />
		</clipPath>
	</g>
</g>
</svg>